/* XPM */
static const char * status_detached_xpm[] = {
"16 16 109 2",
"  	c None",
". 	c #FF0000",
"+ 	c #0B0B0B",
"@ 	c #131313",
"# 	c #363636",
"$ 	c #3E3E3E",
"% 	c #232323",
"& 	c #2F2F2F",
"* 	c #8C8C8C",
"= 	c #CACACA",
"- 	c #D1D1D1",
"; 	c #AAAAAA",
"> 	c #565656",
", 	c #900606",
"' 	c #8F0505",
") 	c #9E1414",
"! 	c #CC4242",
"~ 	c #ACACAC",
"{ 	c #ABABAB",
"] 	c #A6A6A6",
"^ 	c #A4A4A4",
"/ 	c #A3A3A3",
"( 	c #D04646",
"_ 	c #B82E2E",
": 	c #A71D1D",
"< 	c #C63C3C",
"[ 	c #B42A2A",
"} 	c #545454",
"| 	c #555555",
"1 	c #B12727",
"2 	c #B72D2D",
"3 	c #0C0C0C",
"4 	c #980E0E",
"5 	c #B52B2B",
"6 	c #9B1111",
"7 	c #9D1313",
"8 	c #212121",
"9 	c #1F1F1F",
"0 	c #960C0C",
"a 	c #950B0B",
"b 	c #940A0A",
"c 	c #970D0D",
"d 	c #0D0D0D",
"e 	c #0E0E0E",
"f 	c #676767",
"g 	c #A41A1A",
"h 	c #AA2020",
"i 	c #AE2424",
"j 	c #B92F2F",
"k 	c #BD3333",
"l 	c #910707",
"m 	c #1D1D1D",
"n 	c #282828",
"o 	c #5F5F5F",
"p 	c #DD5353",
"q 	c #E85E5E",
"r 	c #DF5555",
"s 	c #D84E4E",
"t 	c #D34949",
"u 	c #CF4545",
"v 	c #0F0F0F",
"w 	c #4B4B4B",
"x 	c #414141",
"y 	c #585858",
"z 	c #E95F5F",
"A 	c #AB2121",
"B 	c #A01616",
"C 	c #141414",
"D 	c #121212",
"E 	c #515151",
"F 	c #404040",
"G 	c #595959",
"H 	c #B62C2C",
"I 	c #9A1010",
"J 	c #171717",
"K 	c #101010",
"L 	c #3C3C3C",
"M 	c #5C5C5C",
"N 	c #353535",
"O 	c #A51B1B",
"P 	c #CA4040",
"Q 	c #161616",
"R 	c #202020",
"S 	c #7D7D7D",
"T 	c #A61C1C",
"U 	c #A11717",
"V 	c #A31919",
"W 	c #C73D3D",
"X 	c #C23838",
"Y 	c #BE3434",
"Z 	c #AF2525",
"` 	c #6C6C6C",
" .	c #C33939",
"..	c #9F1515",
"+.	c #A21818",
"@.	c #BC3232",
"#.	c #727272",
"$.	c #6E6E6E",
"%.	c #646464",
"&.	c #535353",
"*.	c #920808",
"=.	c #9C1212",
"-.	c #2A2A2A",
";.	c #222222",
">.	c #1C1C1C",
",.	c #2D2D2D",
"'.	c #1B1B1B",
").	c #191919",
"!.	c #111111",
". . .     + @ # $ % +     . . . ",
". . . . & * = - - - ; > , . . . ",
". . ' ) ! ~ { ] ^ / ^ ( _ ' . . ",
"  . ' : < [ } | | | 1 2 [ ' '   ",
"  3 4 5 6 7 6 8 9 0 a b a c d   ",
"+ e f g h i 5 j k 1 l ' ' m d + ",
"3 n o | p q r s t u 6 l d d d 3 ",
"v w x y = z p [ h A B C e d d 3 ",
"D E $ F G ! s H ) I c J K d d 3 ",
"C L M N O O : j P 2 B b K d d 3 ",
"Q R S A T O g U V W X O , d d + ",
"  % V W Y [ Z > `  .k 1 ' ' 3   ",
"  4 ..+.[ @.#.$.%.&.g *.' ' .   ",
". . =.V ..-.n ;.>.C e , ' ' . . ",
". . . I ,.-.8 '.Q @ K 3 . . . . ",
". . .     '.).Q !.e +     . . . "};
